<svg width="513" height="512" viewBox="0 0 513 512" fill="none" xmlns="http://www.w3.org/2000/svg">
<path d="M227.323 363.313L312.01 278.627L396.697 363.313L419.323 340.687L334.637 256L419.323 171.313L396.697 148.687L312.01 233.373L227.323 148.687L204.697 171.313L289.383 256L204.697 340.687L227.323 363.313Z" fill="black"/>
<path d="M472.01 64H194.654C191.395 64.0054 188.17 64.6722 185.176 65.96C182.182 67.2477 179.48 69.1297 177.234 71.492L16.01 241.623V270.377L177.234 440.508C179.48 442.87 182.182 444.752 185.176 446.04C188.17 447.328 191.395 447.995 194.654 448H472.01C478.373 447.993 484.473 445.462 488.972 440.962C493.472 436.463 496.003 430.363 496.01 424V88C496.003 81.6371 493.472 75.5369 488.972 71.0376C484.473 66.5384 478.373 64.0074 472.01 64V64ZM464.01 416H198.094L48.01 257.623V254.377L198.094 96H464.01V416Z" fill="black"/>
</svg>
